<svg xmlns="http://www.w3.org/2000/svg" height="478.68" width="668.707"><path d="M393.93 472.297H274.78v-65.246h119.15v65.246" fill="#f4f4f4"/><path d="M467.688 478.68H201.023v-6.381h266.665v6.381" fill="#e9e9e9"/><path d="M393.93 431.248H274.78v-24.113h119.15v24.113" fill="#d3d2d2"/><path d="M668.044 377.717c0 16.2-13.133 29.334-29.333 29.334H30c-16.2 0-29.333-13.134-29.333-29.334V30C.667 13.799 13.799.667 30 .667h608.71c16.2 0 29.334 13.132 29.334 29.333v347.717" fill="#393536"/><path d="M668.044 377.717c0 16.2-13.133 29.334-29.333 29.334H30c-16.2 0-29.333-13.134-29.333-29.334V30C.667 13.799 13.799.667 30 .667h608.71c16.2 0 29.334 13.132 29.334 29.333z" fill="none" stroke="#231f20" stroke-width="1.3333" stroke-miterlimit="10"/><path d="M668.044 377.717c0 16.2-13.133 29.334-29.333 29.334H30C13.8 407.05 638.71.667 638.71.667c16.2 0 29.334 13.132 29.334 29.333v347.717" fill="#333031"/><path d="M28.993 377.305V27.575h610.724v349.73H28.993" fill="#fff"/><path d="M640.384 26.908H28.327v351.064h612.057V26.908zm-1.333 1.333V376.64H29.66V28.24h609.39" fill="#231f20"/><path d="M340.737 14.767a6.382 6.382 0 1 1-12.764 0 6.382 6.382 0 0 1 12.764 0" fill="#2e2a2b"/><path d="M337.192 14.852a2.838 2.838 0 1 1-5.676 0 2.838 2.838 0 0 1 5.676 0" fill="#231f20"/></svg>